<svg width="22" height="24" viewBox="0 0 22 24" fill="none" xmlns="http://www.w3.org/2000/svg">
<path d="M20.4002 1.20001L13.2002 22.8H1.2002L8.4002 1.20001H20.4002Z" fill="#F2F2F2"/>
<path d="M21.6 1.2C21.6 1.51826 21.4736 1.82348 21.2485 2.04853C21.0235 2.27357 20.7183 2.4 20.4 2.4H15.2655L8.865 21.6H13.2C13.5183 21.6 13.8235 21.7264 14.0485 21.9515C14.2736 22.1765 14.4 22.4817 14.4 22.8C14.4 23.1183 14.2736 23.4235 14.0485 23.6485C13.8235 23.8736 13.5183 24 13.2 24H1.2C0.88174 24 0.576516 23.8736 0.351472 23.6485C0.126428 23.4235 0 23.1183 0 22.8C0 22.4817 0.126428 22.1765 0.351472 21.9515C0.576516 21.7264 0.88174 21.6 1.2 21.6H6.3345L12.735 2.4H8.4C8.08174 2.4 7.77652 2.27357 7.55147 2.04853C7.32643 1.82348 7.2 1.51826 7.2 1.2C7.2 0.88174 7.32643 0.576516 7.55147 0.351472C7.77652 0.126428 8.08174 0 8.4 0H20.4C20.7183 0 21.0235 0.126428 21.2485 0.351472C21.4736 0.576516 21.6 0.88174 21.6 1.2Z" fill="#1D1D1D"/>
</svg>
