<svg width="24" height="24" viewBox="0 0 24 24" fill="none" xmlns="http://www.w3.org/2000/svg">
<circle cx="12" cy="12" r="12" fill="#00A3FF"/>
<path d="M10.3999 6.6C10.3999 6.44087 10.4631 6.28826 10.5756 6.17574C10.6882 6.06321 10.8408 6 10.9999 6H16.9999C17.159 6 17.3116 6.06321 17.4242 6.17574C17.5367 6.28826 17.5999 6.44087 17.5999 6.6C17.5999 6.75913 17.5367 6.91174 17.4242 7.02426C17.3116 7.13679 17.159 7.2 16.9999 7.2H14.4119L10.8735 16.4H12.9999C13.159 16.4 13.3116 16.4632 13.4242 16.5757C13.5367 16.6883 13.5999 16.8409 13.5999 17C13.5999 17.1591 13.5367 17.3117 13.4242 17.4243C13.3116 17.5368 13.159 17.6 12.9999 17.6H6.9999C6.84077 17.6 6.68816 17.5368 6.57564 17.4243C6.46312 17.3117 6.3999 17.1591 6.3999 17C6.3999 16.8409 6.46312 16.6883 6.57564 16.5757C6.68816 16.4632 6.84077 16.4 6.9999 16.4H9.5879L13.1263 7.2H10.9999C10.8408 7.2 10.6882 7.13679 10.5756 7.02426C10.4631 6.91174 10.3999 6.75913 10.3999 6.6Z" fill="white"/>
</svg>
