<svg width="24" height="24" viewBox="0 0 24 24" fill="none" xmlns="http://www.w3.org/2000/svg">
<g id="devicon:sqlite" clip-path="url(#clip0_469_8261)">
<path id="Vector" d="M13.0312 18.5955C13.0201 18.4586 13.0136 18.3705 13.0136 18.3705C13.0136 18.3705 12.5999 15.5788 12.1068 14.7454C12.0292 14.6128 12.1149 14.0715 12.3331 13.2679C12.4606 13.4871 12.9969 14.4289 13.1053 14.7322C13.2268 15.0742 13.2515 15.1723 13.2515 15.1723C13.2515 15.1723 12.9571 13.6569 12.4745 12.7729C12.5918 12.3788 12.7171 11.9872 12.8503 11.5982C13.0327 11.9188 13.4714 12.6967 13.568 12.9669C13.5871 13.0219 13.604 13.0687 13.6186 13.1121C13.6229 13.0864 13.628 13.0607 13.6325 13.0344C13.5219 12.5649 13.3044 11.7482 13.007 11.1441C13.667 7.70756 15.9191 3.11456 18.227 1.06519H3.16869C2.15863 1.06519 1.33325 1.89131 1.33325 2.90062V19.5075C1.33325 20.5168 2.15938 21.3429 3.16888 21.3429H13.0871C13.0119 20.4292 12.9933 19.5117 13.0314 18.5957" fill="#0B7FCC"/>
<path id="Vector_2" d="M12.3332 13.2678C12.4607 13.4868 12.9969 14.4281 13.1051 14.732C13.2268 15.074 13.2515 15.1721 13.2515 15.1721C13.2515 15.1721 12.9572 13.6567 12.4745 12.7727C12.5919 12.3783 12.7172 11.9864 12.8503 11.597C13.0166 11.8908 13.3982 12.5662 13.535 12.8855L13.5504 12.7053C13.4289 12.2373 13.2442 11.6242 13.007 11.1438C13.6149 7.98053 15.572 3.83696 17.6807 1.60046H3.16853C2.82384 1.60076 2.49335 1.73781 2.2496 1.98152C2.00585 2.22524 1.86876 2.55571 1.86841 2.9004V18.296C5.15472 17.034 9.11791 15.881 12.5287 15.9309C12.4027 15.4425 12.2585 15.0009 12.1068 14.7452C12.0292 14.6126 12.1149 14.0707 12.3332 13.2678Z" fill="url(#paint0_linear_469_8261)"/>
<path id="Vector_3" d="M21.7406 0.521424C20.7093 -0.398451 19.4598 -0.0285137 18.2279 1.06499C18.0377 1.23519 17.8554 1.41407 17.6816 1.60105C15.5722 3.83717 13.6158 7.98036 13.0079 11.1439C13.2446 11.6244 13.4298 12.2374 13.5506 12.7054C13.5821 12.8254 13.6106 12.9382 13.6334 13.0342C13.6869 13.2605 13.7154 13.4085 13.7154 13.4085C13.7154 13.4085 13.6964 13.3367 13.6188 13.1119C13.6042 13.0687 13.5873 13.0211 13.5682 12.9669C13.5583 12.9395 13.5475 12.9123 13.5359 12.8855C13.3983 12.5662 13.0175 11.8909 12.8504 11.598C12.7076 12.0199 12.581 12.4155 12.4747 12.7727C12.9581 13.6567 13.2526 15.1721 13.2526 15.1721C13.2526 15.1721 13.2269 15.074 13.106 14.732C12.9976 14.4281 12.4608 13.487 12.3341 13.2679C12.1158 14.0705 12.0294 14.6126 12.1078 14.7454C12.2594 15.0007 12.4029 15.4432 12.5296 15.9309C12.8154 17.031 13.0145 18.3707 13.0145 18.3707C13.0145 18.3707 13.0203 18.4586 13.0321 18.5957C12.9941 19.5116 13.0127 20.4291 13.0878 21.3427C13.1823 22.4884 13.3603 23.4733 13.5873 24L13.7426 23.9158C13.4086 22.878 13.2731 21.5171 13.3323 19.949C13.4223 17.5504 13.9739 14.6587 14.9928 11.6449C16.7161 7.09424 19.1062 3.44399 21.2932 1.7008C19.2995 3.50117 16.6014 9.32905 15.7934 11.4874C14.8897 13.9044 14.2488 16.1719 13.862 18.345C14.5276 16.3082 16.6833 15.4331 16.6833 15.4331C16.6833 15.4331 17.7403 14.1285 18.9759 12.2666C18.2353 12.4359 17.0203 12.7245 16.6138 12.8951C16.0138 13.1471 15.8512 13.2326 15.8512 13.2326C15.8512 13.2326 17.7958 12.0491 19.4643 11.513C21.7582 7.89992 24.2572 2.76655 21.7408 0.521611" fill="#003956"/>
</g>
<defs>
<linearGradient id="paint0_linear_469_8261" x1="10.9856" y1="1.94063" x2="10.9856" y2="17.3667" gradientUnits="userSpaceOnUse">
<stop stop-color="#95D7F4"/>
<stop offset="0.92" stop-color="#0F7FCC"/>
<stop offset="1" stop-color="#0F7FCC"/>
</linearGradient>
<clipPath id="clip0_469_8261">
<rect width="24" height="24" fill="white"/>
</clipPath>
</defs>
</svg>
