<svg width="24" height="24" viewBox="0 0 24 24" fill="none" xmlns="http://www.w3.org/2000/svg">
<g id="logos:postgresql" clip-path="url(#clip0_469_8268)">
<path id="Vector" d="M23.9033 14.3714C23.7594 13.9488 23.3826 13.6544 22.8952 13.5838C22.6654 13.5505 22.4023 13.5647 22.0908 13.6269C21.548 13.7356 21.1453 13.7769 20.8514 13.7849C21.9607 11.9681 22.8628 9.89631 23.3821 7.94604C24.2218 4.79249 23.7731 3.35586 23.2487 2.70604C21.861 0.986038 19.8364 0.0620383 17.3938 0.0337656C16.0908 0.018311 14.947 0.267856 14.3502 0.447311C13.7947 0.35222 13.1973 0.299129 12.5705 0.289311C11.3955 0.271129 10.3574 0.519584 9.4703 1.03022C8.9792 0.869129 8.19101 0.642038 7.2808 0.497129C5.14003 0.15622 3.41463 0.421857 2.15259 1.28667C0.624376 2.33377 -0.0840587 4.15304 0.0469629 6.69395C0.0885749 7.50068 0.553805 9.95522 1.28633 12.283C1.70732 13.621 2.15624 14.7321 2.62063 15.5858C3.2792 16.7962 3.98389 17.509 4.77499 17.765C5.21838 17.9083 6.024 18.0087 6.87133 17.3241C6.97873 17.4503 7.12203 17.5757 7.31219 17.6921C7.55371 17.8399 7.84903 17.9606 8.14396 18.0321C9.20685 18.2899 10.2024 18.2254 11.0518 17.8641C11.0571 18.0107 11.0611 18.1507 11.0645 18.2716C11.0701 18.4677 11.0757 18.6599 11.0831 18.8398C11.1335 20.0556 11.2188 21.0009 11.4714 21.6624C11.4853 21.6988 11.5039 21.7542 11.5236 21.813C11.6497 22.1874 11.8605 22.8141 12.3967 23.3049C12.952 23.8134 13.6237 23.9693 14.2389 23.9693C14.5474 23.9693 14.8418 23.93 15.1 23.8764C16.0203 23.685 17.0656 23.3936 17.8218 22.3492C18.5367 21.3619 18.8842 19.8749 18.9471 17.5319C18.9552 17.4657 18.9627 17.4024 18.9699 17.3421L18.9849 17.2183L19.1533 17.2327L19.1967 17.2355C20.1341 17.2769 21.2803 17.0841 21.9843 16.7669C22.5405 16.5166 24.323 15.6038 23.9033 14.3714Z" fill="black"/>
<path id="Vector_2" d="M22.3005 14.6111C19.5132 15.1688 19.3216 14.2535 19.3216 14.2535C22.2644 10.0178 23.4947 4.64112 22.4331 3.32521C19.5368 -0.264335 14.5232 1.4333 14.4395 1.4773L14.4126 1.48203C13.8619 1.37112 13.2457 1.30512 12.553 1.29412C11.2919 1.27412 10.3352 1.61485 9.6092 2.14885C9.6092 2.14885 0.665433 -1.42515 1.08146 6.64376C1.16993 8.3603 3.61792 19.6322 6.53769 16.2276C7.60489 14.9826 8.6361 13.9299 8.6361 13.9299C9.14819 14.2599 9.76131 14.4283 10.404 14.3678L10.454 14.3268C10.4384 14.4813 10.4456 14.6325 10.474 14.8115C9.72176 15.6267 9.94285 15.7698 8.43919 16.07C6.91764 16.3742 7.81145 16.9157 8.39505 17.0573C9.10255 17.2288 10.7393 17.4719 11.8452 15.9702L11.8011 16.1416C12.0958 16.3706 12.3027 17.6309 12.2681 18.7736C12.2334 19.9161 12.2102 20.7006 12.4424 21.3133C12.6747 21.926 12.9061 23.3047 14.8829 22.8938C16.5345 22.5505 17.3905 21.6608 17.5096 20.1766C17.594 19.1215 17.7853 19.2775 17.7973 18.3341L17.9507 17.8876C18.1276 16.4573 17.9788 15.9958 18.9964 16.2105L19.2438 16.2316C19.9926 16.2646 20.9729 16.1147 21.5483 15.8553C22.7871 15.2977 23.5219 14.3665 22.3003 14.6111H22.3005Z" fill="#336791"/>
<path id="Vector_3" d="M10.1326 7.41133C9.88148 7.37742 9.65402 7.40878 9.53893 7.49333C9.47426 7.54087 9.4542 7.59596 9.44877 7.63387C9.43433 7.73433 9.50687 7.84542 9.55149 7.90269C9.67763 8.06487 9.86189 8.17633 10.0443 8.20087C10.0707 8.20451 10.097 8.20615 10.1232 8.20615C10.4273 8.20615 10.7039 7.97642 10.7282 7.80687C10.7587 7.59451 10.4409 7.45287 10.1326 7.41133ZM18.4535 7.41806C18.4296 7.2516 18.1242 7.20415 17.8344 7.24324C17.545 7.28233 17.2644 7.40906 17.2878 7.57587C17.3066 7.7056 17.5481 7.92706 17.834 7.92706C17.8581 7.92706 17.8825 7.92551 17.9071 7.92215C18.0979 7.89651 18.2379 7.77896 18.3044 7.71124C18.4057 7.60796 18.4643 7.49287 18.4535 7.41806Z" fill="white"/>
<path id="Vector_4" d="M23.2279 14.5477C23.1217 14.2359 22.7796 14.1357 22.2113 14.2495C20.5238 14.5873 19.9195 14.3533 19.7211 14.2116C21.0327 12.2734 22.1117 9.93048 22.6938 7.74458C22.9695 6.70912 23.1218 5.74749 23.1343 4.96367C23.1481 4.10339 22.997 3.47121 22.6855 3.08503C21.4294 1.52821 19.5859 0.693121 17.3545 0.670212C15.8203 0.653485 14.5242 1.0343 14.2729 1.14139C13.7438 1.01376 13.1669 0.935394 12.5389 0.925394C11.3873 0.907303 10.3918 1.17476 9.56758 1.71994C9.20956 1.59067 8.28435 1.28258 7.15286 1.10576C5.19672 0.800303 3.64227 1.03176 2.53299 1.79403C1.20938 2.70367 0.598317 4.32967 0.716686 6.62676C0.756517 7.39958 1.2105 9.77703 1.9269 12.0538C2.86992 15.0506 3.89504 16.747 4.97357 17.096C5.09982 17.1368 5.24536 17.1654 5.40591 17.1654C5.79935 17.1654 6.28173 16.9934 6.7836 16.4081C7.39575 15.6958 8.02897 15.0008 8.68248 14.3239C9.10647 14.5447 9.57226 14.6679 10.0486 14.6803C10.0496 14.6924 10.0508 14.7045 10.0519 14.7165C9.96992 14.8113 9.88962 14.9076 9.81106 15.0051C9.48098 15.4116 9.41228 15.4962 8.34977 15.7084C8.04752 15.7689 7.2448 15.9294 7.23299 16.4752C7.22025 17.0716 8.18192 17.322 8.29148 17.3486C8.67329 17.4413 9.04115 17.487 9.39194 17.487C10.2451 17.487 10.9959 17.215 11.5959 16.6888C11.5774 18.8148 11.6688 20.9097 11.932 21.5479C12.1475 22.0705 12.674 23.3475 14.3372 23.3474C14.5813 23.3474 14.8499 23.3198 15.1454 23.2584C16.8812 22.8975 17.635 22.1533 17.9265 20.5127C18.0826 19.6358 18.3503 17.5421 18.4763 16.419C18.7421 16.4995 19.0843 16.5363 19.4542 16.5362C20.2257 16.5362 21.1159 16.3772 21.6742 16.1258C22.3014 15.8433 23.4332 15.15 23.2279 14.5477ZM19.0943 6.95858C19.0886 7.29012 19.0415 7.59112 18.9917 7.9053C18.938 8.24321 18.8825 8.59258 18.8685 9.01667C18.8547 9.42939 18.9079 9.85849 18.9592 10.2735C19.0631 11.1117 19.1696 11.9746 18.7572 12.826C18.6887 12.7083 18.6276 12.5866 18.5744 12.4616C18.5232 12.341 18.4118 12.1474 18.2576 11.8794C17.6579 10.8361 16.2535 8.39303 16.9725 7.39612C17.1866 7.09939 17.7301 6.7943 19.0943 6.95858ZM17.4407 1.34158C19.4401 1.38439 21.0217 2.10994 22.1415 3.49794C23.0004 4.56258 22.0546 9.40685 19.3168 13.586C19.2892 13.5521 19.2616 13.5182 19.2337 13.4845L19.1991 13.4425C19.9066 12.3091 19.7682 11.1878 19.6451 10.1936C19.5945 9.78557 19.5467 9.40021 19.5589 9.03821C19.5714 8.65458 19.6237 8.32548 19.6743 8.0073C19.7365 7.61521 19.7997 7.20948 19.7823 6.73121C19.7953 6.68103 19.8006 6.62176 19.7937 6.55139C19.7492 6.09276 19.2094 4.72012 18.1091 3.47776C17.5072 2.79821 16.6295 2.03776 15.4311 1.52485C15.9466 1.42121 16.6515 1.32458 17.4407 1.34158ZM6.25249 15.9798C5.69954 16.6247 5.31772 16.501 5.19213 16.4605C4.37395 16.1958 3.42456 14.5183 2.58754 11.8583C1.86327 9.55667 1.44002 7.24221 1.40647 6.59321C1.30075 4.54067 1.81369 3.11021 2.93112 2.34148C4.74968 1.09058 7.73955 1.8393 8.94096 2.21903C8.92372 2.23558 8.90572 2.25103 8.88866 2.26785C6.91715 4.19912 6.96392 7.49876 6.96879 7.70048C6.96861 7.7783 6.97536 7.88848 6.98454 8.04003C7.01847 8.59503 7.08163 9.62794 6.91294 10.7977C6.75624 11.8847 7.10169 12.9486 7.86055 13.7167C7.93843 13.7953 8.02028 13.8702 8.10581 13.941C7.76804 14.2919 7.03393 15.0679 6.25249 15.9798ZM8.35924 13.2531C7.74761 12.634 7.46983 11.7729 7.597 10.8904C7.77507 9.65476 7.70938 8.57858 7.67404 8.00039C7.66908 7.91948 7.66467 7.84858 7.66214 7.79267C7.95014 7.54494 9.28482 6.8513 10.2366 7.06285C10.6709 7.1593 10.9356 7.44621 11.0456 7.93967C11.6151 10.4945 11.121 11.5593 10.724 12.415C10.6422 12.5913 10.5649 12.7579 10.4989 12.9303L10.4477 13.0636C10.3182 13.4005 10.1977 13.7138 10.123 14.0112C9.47273 14.0094 8.84021 13.7399 8.35924 13.253M8.45905 16.6985C8.26917 16.6525 8.09841 16.5726 7.99822 16.5063C8.08192 16.4681 8.23084 16.4161 8.48913 16.3645C9.73909 16.1149 9.93215 15.9388 10.3537 15.4196C10.4503 15.3005 10.5599 15.1656 10.7116 15.0012L10.7118 15.001C10.9378 14.7556 11.0411 14.7972 11.2286 14.8727C11.3805 14.9336 11.5285 15.1183 11.5885 15.3216C11.6169 15.4176 11.6487 15.5998 11.5444 15.7416C10.6638 16.9376 9.3806 16.9222 8.45905 16.6985ZM15.0007 22.6032C13.4715 22.921 12.9301 22.1642 12.5733 21.299C12.343 20.7405 12.2298 18.2218 12.3101 15.4402C12.3112 15.4032 12.3057 15.3675 12.2952 15.3338C12.2858 15.2674 12.2716 15.2017 12.2525 15.1373C12.1331 14.7326 11.8421 14.394 11.493 14.2537C11.3543 14.1979 11.0997 14.0957 10.7938 14.1716C10.859 13.9108 10.9722 13.6164 11.0948 13.2976L11.1463 13.1635C11.2042 13.0123 11.2769 12.8557 11.3538 12.6898C11.7693 11.7946 12.3382 10.5683 11.7207 7.79803C11.4894 6.76039 10.717 6.25367 9.54602 6.37139C8.84405 6.44185 8.20178 6.71658 7.88145 6.87412C7.81256 6.90794 7.74958 6.94067 7.69072 6.97248C7.78013 5.92703 8.1179 3.97321 9.38145 2.73703C10.177 1.95885 11.2366 1.57448 12.5275 1.59521C15.071 1.63558 16.7022 2.90176 17.6227 3.95694C18.4159 4.86612 18.8455 5.78203 19.0169 6.27603C17.7277 6.14885 16.851 6.39567 16.4066 7.01203C15.4396 8.35276 16.9355 10.9549 17.6545 12.2056C17.7863 12.4348 17.9001 12.6328 17.9359 12.717C18.17 13.2674 18.4731 13.6348 18.6944 13.903C18.7622 13.9852 18.828 14.0649 18.8781 14.1346C18.4876 14.2438 17.7863 14.496 17.8502 15.757C17.7987 16.3898 17.4321 19.3521 17.2459 20.3988C17.0001 21.7815 16.4755 22.2964 15.0007 22.6032ZM21.3834 15.5182C20.9842 15.6979 20.316 15.8328 19.6814 15.8618C18.9803 15.8936 18.6234 15.7856 18.5395 15.7191C18.5001 14.9333 18.8016 14.8512 19.1207 14.7643C19.1709 14.7507 19.2198 14.7373 19.267 14.7213C19.2963 14.7445 19.3285 14.7675 19.3637 14.79C19.9272 15.1508 20.9321 15.1897 22.351 14.9056L22.3665 14.9026C22.1752 15.0761 21.8477 15.309 21.3834 15.5182Z" fill="white"/>
</g>
<defs>
<clipPath id="clip0_469_8268">
<rect width="24" height="24" fill="white"/>
</clipPath>
</defs>
</svg>
